{
  "accessors": [
    {
      "bufferView": 2,
      "componentType": 5126,
      "count": 3710,
      "max": [
        1239.3931884765625,
        1017.481689453125,
        1695.3935546875
      ],
      "min": [
        -1294.36767578125,
        -13.141921997070313,
        -1051.17138671875
      ],
      "type": "VEC3"
    },
    {
      "bufferView": 2,
      "byteOffset": 44520,
      "componentType": 5126,
      "count": 3710,
      "max": [
        0.9994989633560181,
        0.9999090433120728,
        0.9999240636825562
      ],
      "min": [
        -0.9996903538703918,
        -1.0,
        -0.9997868537902832
      ],
      "type": "VEC3"
    },
    {
      "bufferView": 3,
      "componentType": 5126,
      "count": 3710,
      "max": [
        0.9999261498451233,
        0.9999843239784241,
        0.9998628497123718,
        1.0
      ],
      "min": [
        -0.9977585673332214,
        -0.9998014569282532,
        -0.9999690651893616,
        -1.0
      ],
      "type": "VEC4"
    },
    {
      "bufferView": 1,
      "componentType": 5126,
      "count": 3710,
      "max": [
        0.9938482046127319,
        0.9964264035224915
      ],
      "min": [
        0.003573622554540634,
        0.0035736560821533203
      ],
      "type": "VEC2"
    },
    {
      "bufferView": 1,
      "byteOffset": 29680,
      "componentType": 5126,
      "count": 3710,
      "max": [
        0.9938482046127319,
        0.9964264035224915
      ],
      "min": [
        0.003573622554540634,
        0.0035736560821533203
      ],
      "type": "VEC2"
    },
    {
      "bufferView": 0,
      "componentType": 5125,
      "count": 17238,
      "type": "SCALAR"
    }
  ],
  "asset": {
    "extras": {
      "author": "3DMaesen (https://sketchfab.com/bumstrum)",
      "license": "CC-BY-4.0 (http://creativecommons.org/licenses/by/4.0/)",
      "source": "https://sketchfab.com/3d-models/cliff-082da1166a814c6e9c9e6c1b38159e4e",
      "title": "Cliff"
    },
    "generator": "Sketchfab-10.93.0",
    "version": "2.0"
  },
  "bufferViews": [
    {
      "buffer": 0,
      "byteLength": 68952,
      "name": "floatBufferViews",
      "target": 34963
    },
    {
      "buffer": 0,
      "byteLength": 59360,
      "byteOffset": 68952,
      "byteStride": 8,
      "name": "floatBufferViews",
      "target": 34962
    },
    {
      "buffer": 0,
      "byteLength": 89040,
      "byteOffset": 128312,
      "byteStride": 12,
      "name": "floatBufferViews",
      "target": 34962
    },
    {
      "buffer": 0,
      "byteLength": 59360,
      "byteOffset": 217352,
      "byteStride": 16,
      "name": "floatBufferViews",
      "target": 34962
    }
  ],
  "buffers": [
    {
      "byteLength": 276712,
      "uri": "scene.bin"
    }
  ],
  "images": [
    {
      "uri": "textures/cliff_baseColor.png"
    },
    {
      "uri": "textures/cliff_metallicRoughness.png"
    },
    {
      "uri": "textures/cliff_normal.png"
    }
  ],
  "materials": [
    {
      "doubleSided": true,
      "name": "cliff",
      "normalTexture": {
        "index": 2
      },
      "occlusionTexture": {
        "index": 1
      },
      "pbrMetallicRoughness": {
        "baseColorTexture": {
          "index": 0
        },
        "metallicFactor": 0.0,
        "metallicRoughnessTexture": {
          "index": 1
        }
      }
    }
  ],
  "meshes": [
    {
      "name": "cliff_cliff_0",
      "primitives": [
        {
          "attributes": {
            "NORMAL": 1,
            "POSITION": 0,
            "TANGENT": 2,
            "TEXCOORD_0": 3,
            "TEXCOORD_1": 4
          },
          "indices": 5,
          "material": 0,
          "mode": 4
        }
      ]
    }
  ],
  "nodes": [
    {
      "children": [
        1
      ],
      "matrix": [
        1.0,
        0.0,
        0.0,
        0.0,
        0.0,
        2.220446049250313e-16,
        -1.0,
        0.0,
        0.0,
        1.0,
        2.220446049250313e-16,
        0.0,
        0.0,
        0.0,
        0.0,
        1.0
      ],
      "name": "Sketchfab_model"
    },
    {
      "children": [
        2
      ],
      "matrix": [
        1.0,
        0.0,
        0.0,
        0.0,
        0.0,
        0.0,
        1.0,
        0.0,
        0.0,
        -1.0,
        0.0,
        0.0,
        0.0,
        0.0,
        0.0,
        1.0
      ],
      "name": "80ddd90318904c0fad74bfa2742b72fe.fbx"
    },
    {
      "children": [
        3
      ],
      "name": "RootNode"
    },
    {
      "children": [
        4
      ],
      "name": "cliff"
    },
    {
      "mesh": 0,
      "name": "cliff_cliff_0"
    }
  ],
  "samplers": [
    {
      "magFilter": 9729,
      "minFilter": 9987,
      "wrapS": 10497,
      "wrapT": 10497
    }
  ],
  "scene": 0,
  "scenes": [
    {
      "name": "Sketchfab_Scene",
      "nodes": [
        0
      ]
    }
  ],
  "textures": [
    {
      "sampler": 0,
      "source": 0
    },
    {
      "sampler": 0,
      "source": 1
    },
    {
      "sampler": 0,
      "source": 2
    }
  ]
}
